<svg width="35" height="31" viewBox="0 0 35 31" fill="none" xmlns="http://www.w3.org/2000/svg">
<path fill-rule="evenodd" clip-rule="evenodd" d="M22.5761 31H11.1869C10.9848 31 10.7152 30.7978 10.7152 30.5283V8.01959C10.7152 7.75003 10.9848 7.54785 11.1869 7.54785H22.5761C22.8456 7.54785 23.0478 7.75003 23.0478 8.01959V30.5283C23.0478 30.7978 22.8456 31 22.5761 31ZM11.6587 30.0565H22.1043V8.49133H11.6587V30.0565Z" fill="#AA904D"/>
<path fill-rule="evenodd" clip-rule="evenodd" d="M24.4632 8.4913C24.4632 8.4913 24.4632 8.4913 24.3958 8.4913H9.36756C9.16539 8.4913 8.96321 8.35652 8.89582 8.15435C8.82843 8.01957 8.89582 7.81739 9.03061 7.68261L16.5784 0.134783C16.6458 0.0673913 16.7806 0 16.9154 0C16.9828 0 17.1176 0.0673913 17.2523 0.134783L24.7328 7.61522C24.8676 7.75 24.935 7.88478 24.935 8.01957C24.935 8.28913 24.6654 8.4913 24.4632 8.4913ZM10.5132 7.54783H23.3176L16.9154 1.14565L10.5132 7.54783Z" fill="#AA904D"/>
<path fill-rule="evenodd" clip-rule="evenodd" d="M33.2913 16.6454H22.5761C22.3065 16.6454 22.1043 16.4433 22.1043 16.1737V9.97369C22.1043 9.70413 22.3065 9.50195 22.5761 9.50195H31.8761C32.0783 9.50195 32.2804 9.63674 32.3478 9.83891L33.763 16.0389C33.763 16.1063 33.763 16.1063 33.763 16.1737C33.763 16.4433 33.5609 16.6454 33.2913 16.6454ZM23.0478 15.702H32.6848L31.4717 10.4454H23.0478V15.702ZM11.187 16.6454H0.471739C0.336957 16.6454 0.202174 16.578 0.134783 16.4433C0 16.3759 0 16.1737 0 16.0389L1.41522 9.83891C1.48261 9.63674 1.68478 9.50195 1.88696 9.50195H11.187C11.4565 9.50195 11.6587 9.70413 11.6587 9.97369V16.1737C11.6587 16.4433 11.4565 16.6454 11.187 16.6454ZM1.07826 15.702H10.7152V10.4454H2.2913L1.07826 15.702Z" fill="#AA904D"/>
<path fill-rule="evenodd" clip-rule="evenodd" d="M11.187 31H1.95441C1.68484 31 1.48267 30.7978 1.48267 30.5282V16.1739C1.48267 15.9043 1.68484 15.7021 1.95441 15.7021H11.187C11.4566 15.7021 11.6588 15.9043 11.6588 16.1739C11.6588 16.4435 11.4566 16.6456 11.187 16.6456H2.42614V30.0565H11.187C11.4566 30.0565 11.6588 30.2587 11.6588 30.5282C11.6588 30.7978 11.4566 31 11.187 31Z" fill="#AA904D"/>
<path fill-rule="evenodd" clip-rule="evenodd" d="M8.96306 27.6305H4.24566C3.9761 27.6305 3.77393 27.4283 3.77393 27.1587V19.5435C3.77393 19.274 3.9761 19.0718 4.24566 19.0718H8.96306C9.23262 19.0718 9.4348 19.274 9.4348 19.5435V27.1587C9.4348 27.4283 9.23262 27.6305 8.96306 27.6305ZM4.7174 26.687H8.49132V20.0153H4.7174V26.687Z" fill="#AA904D"/>
<path fill-rule="evenodd" clip-rule="evenodd" d="M6.60431 27.6305C6.33474 27.6305 6.13257 27.4283 6.13257 27.1587V19.5435C6.13257 19.274 6.33474 19.0718 6.60431 19.0718C6.87387 19.0718 7.07605 19.274 7.07605 19.5435V27.1587C7.07605 27.4283 6.87387 27.6305 6.60431 27.6305Z" fill="#AA904D"/>
<path fill-rule="evenodd" clip-rule="evenodd" d="M31.8087 31H22.5761C22.3065 31 22.1044 30.7978 22.1044 30.5282C22.1044 30.2587 22.3065 30.0565 22.5761 30.0565H31.337V16.6456H22.5761C22.3065 16.6456 22.1044 16.4435 22.1044 16.1739C22.1044 15.9043 22.3065 15.7021 22.5761 15.7021H31.8087C32.0783 15.7021 32.2805 15.9043 32.2805 16.1739V30.5282C32.2805 30.7978 32.0783 31 31.8087 31Z" fill="#AA904D"/>
<path fill-rule="evenodd" clip-rule="evenodd" d="M29.5849 27.6305H24.8001C24.5305 27.6305 24.3284 27.4283 24.3284 27.1587V19.5435C24.3284 19.274 24.5305 19.0718 24.8001 19.0718H29.5849C29.7871 19.0718 30.0566 19.274 30.0566 19.5435V27.1587C30.0566 27.4283 29.7871 27.6305 29.5849 27.6305ZM25.2718 26.687H29.1132V20.0153H25.2718V26.687Z" fill="#AA904D"/>
<path fill-rule="evenodd" clip-rule="evenodd" d="M27.1588 27.6305C26.9566 27.6305 26.687 27.4283 26.687 27.1587V19.5435C26.687 19.274 26.9566 19.0718 27.1588 19.0718C27.4283 19.0718 27.6305 19.274 27.6305 19.5435V27.1587C27.6305 27.4283 27.4283 27.6305 27.1588 27.6305Z" fill="#AA904D"/>
<path fill-rule="evenodd" clip-rule="evenodd" d="M20.2849 31.0002H13.4783C13.2088 31.0002 13.0066 30.798 13.0066 30.5284V22.8458C13.0066 22.2393 13.5457 21.7676 14.1522 21.7676H19.6783C20.2849 21.7676 20.7566 22.2393 20.7566 22.8458V30.5284C20.7566 30.798 20.5544 31.0002 20.2849 31.0002ZM13.9501 30.0567H19.8131V22.8458C19.8131 22.7784 19.7457 22.7111 19.6783 22.7111H14.1522C14.0175 22.7111 13.9501 22.7784 13.9501 22.8458V30.0567Z" fill="#AA904D"/>
<path fill-rule="evenodd" clip-rule="evenodd" d="M20.15 16.1062H13.6805C13.4109 16.1062 13.2087 15.904 13.2087 15.6345V10.8497C13.2087 10.5801 13.4109 10.3779 13.6805 10.3779H20.15C20.3522 10.3779 20.6218 10.5801 20.6218 10.8497V15.6345C20.6218 15.904 20.3522 16.1062 20.15 16.1062ZM14.1522 15.1627H19.6783V11.3214H14.1522V15.1627Z" fill="#AA904D"/>
<path fill-rule="evenodd" clip-rule="evenodd" d="M16.9152 16.1062C16.6457 16.1062 16.4435 15.904 16.4435 15.6345V10.8497C16.4435 10.5801 16.6457 10.3779 16.9152 10.3779C17.1848 10.3779 17.387 10.5801 17.387 10.8497V15.6345C17.387 15.904 17.1848 16.1062 16.9152 16.1062Z" fill="#AA904D"/>
<path fill-rule="evenodd" clip-rule="evenodd" d="M20.15 13.6803H13.6805C13.4109 13.6803 13.2087 13.4781 13.2087 13.2086C13.2087 12.939 13.4109 12.7368 13.6805 12.7368H20.15C20.3522 12.7368 20.6218 12.939 20.6218 13.2086C20.6218 13.4781 20.3522 13.6803 20.15 13.6803Z" fill="#AA904D"/>
<path fill-rule="evenodd" clip-rule="evenodd" d="M34.0326 31.0001H0.471739C0.202174 31.0001 0 30.7979 0 30.5284C0 30.2588 0.202174 30.0566 0.471739 30.0566H34.0326C34.3022 30.0566 34.5043 30.2588 34.5043 30.5284C34.5043 30.7979 34.3022 31.0001 34.0326 31.0001Z" fill="#AA904D"/>
</svg>
